Coordinates
version=1
nRows=6
nColumns=63
inDegrees=yes

Units are S.I. units (second, meters, Newtons, ...)
If the header above contains a line with 'inDegrees', this indicates whether rotational values are in degrees (yes) or radians (no).

endheader
time	pelvis_tilt	pelvis_list	pelvis_rotation	pelvis_tx	pelvis_ty	pelvis_tz	hip_flexion_r	hip_adduction_r	hip_rotation_r	knee_angle_r	knee_angle_r_beta	ankle_angle_r	subtalar_angle_r	mtp_angle_r	hip_flexion_l	hip_adduction_l	hip_rotation_l	knee_angle_l	knee_angle_l_beta	ankle_angle_l	subtalar_angle_l	mtp_angle_l	L5_S1_Flex_Ext	L5_S1_Lat_Bending	L5_S1_axial_rotation	L4_L5_Flex_Ext	L4_L5_Lat_Bending	L4_L5_axial_rotation	L3_L4_Flex_Ext	L3_L4_Lat_Bending	L3_L4_axial_rotation	L2_L3_Flex_Ext	L2_L3_Lat_Bending	L2_L3_axial_rotation	L1_L2_Flex_Ext	L1_L2_Lat_Bending	L1_L2_axial_rotation	L1_T12_Flex_Ext	L1_T12_Lat_Bending	L1_T12_axial_rotation	Abs_r3	Abs_r2	Abs_r1	Abs_t1	Abs_t2	neck_flexion	neck_bending	neck_rotation	arm_flex_r	arm_add_r	arm_rot_r	elbow_flex_r	pro_sup_r	wrist_flex_r	wrist_dev_r	arm_flex_l	arm_add_l	arm_rot_l	elbow_flex_l	pro_sup_l	wrist_flex_l	wrist_dev_l
      1.30000000	     -0.51930114	     -5.27555789	    100.53622552	      0.27245368	      0.78699245	      0.63490485	      1.49295325	      0.12540867	    -14.67914735	      6.33796239	      0.11061831	     30.81100102	     11.89634820	      0.00000000	      8.94151673	      0.45434857	     -2.71821328	     12.90734732	      0.22527571	     35.18609602	     16.19478199	      0.00000000	      0.13580057	     -0.40727241	     -0.58622676	      0.25219523	     -0.54167230	     -0.62286593	      0.22310675	     -0.99024213	     -0.62286593	      0.15520647	     -0.99024213	     -0.51294842	      0.12610440	     -0.83050989	     -0.47630924	      0.07759644	     -0.63086496	     -0.43967007	      0.97000986	     -4.60714693	     -3.26041738	      0.00000000	      0.00000000	      6.90175931	      9.40528286	     -0.13033134	     53.02678748	    -18.92848086	     15.19301524	    110.35812643	     79.30091359	     16.26562884	     -5.60341637	     21.98830688	    -19.05915910	     53.28911105	     73.62297276	     88.39858258	     -5.21305968	      4.94790247
      1.31666667	     -0.69068768	     -5.48004870	    100.31861271	      0.27264103	      0.78631964	      0.63537500	      1.96285408	     -0.22888293	    -15.36419894	      7.05575857	      0.12314622	     31.30570477	     12.77366934	      0.00000000	      9.11865563	      0.67466162	     -2.87118411	     12.83844530	      0.22407314	     35.20198338	     16.05509947	      0.00000000	      0.12612415	     -0.43716387	     -0.42939726	      0.23422516	     -0.58142795	     -0.45623459	      0.20720937	     -1.06292024	     -0.45623459	      0.14414729	     -1.06292024	     -0.37572261	      0.11711889	     -0.89146457	     -0.34888528	      0.07206734	     -0.67716684	     -0.32204795	      0.90089219	     -4.94528518	     -2.38817876	      0.00000000	      0.00000000	      6.65212122	      9.57060979	     -0.55253715	     53.56163354	    -19.55345492	     18.20057990	    106.75942739	     71.49193635	     18.11852354	     -5.72000330	     22.85390585	    -18.82013978	     54.08506364	     73.94097083	     88.13326712	     -4.57418124	      6.00393539
      1.33333333	     -0.70487181	     -5.66377555	    100.69427900	      0.27179037	      0.78555401	      0.63528012	      2.20580578	     -0.42760156	    -17.09489179	      7.46939225	      0.13036549	     31.83730428	     14.38498103	      0.00000000	      9.37560427	      0.81790951	     -2.43090346	     12.93058748	      0.22568133	     35.35641534	     16.01997641	      0.00000000	      0.12795755	     -0.44132676	     -0.38653418	      0.23762996	     -0.58696460	     -0.41069256	      0.21022146	     -1.07304189	     -0.41069256	      0.14624268	     -1.07304189	     -0.33821740	      0.11882138	     -0.89995354	     -0.31405902	      0.07311494	     -0.68361516	     -0.28990063	      0.91398797	     -4.99237662	     -2.14978713	      0.00000000	      0.00000000	      6.34913124	      9.52853913	     -0.66095790	     53.94508820	    -19.90515642	     20.93470474	    102.84293073	     54.86949778	     24.64579846	      3.43945050	     23.07584930	    -18.40491163	     53.97691904	     74.13774733	     87.95550505	     -3.26202606	      6.62573871
      1.35000000	     -0.68513055	     -5.79167598	    101.16706795	      0.27090569	      0.78487549	      0.63481549	      2.33645653	     -0.51228378	    -18.01681365	      7.73233296	      0.13495467	     32.27056469	     14.98349718	      0.00000000	      9.53829484	      0.93795907	     -1.69957038	     12.97358216	      0.22643172	     35.51672636	     15.88100647	      0.00000000	      0.12974349	     -0.44451477	     -0.34640960	      0.24094663	     -0.59120465	     -0.36806020	      0.21315557	     -1.08079322	     -0.36806020	      0.14828383	     -1.08079322	     -0.30310840	      0.12047980	     -0.90645453	     -0.28145780	      0.07413543	     -0.68855339	     -0.25980720	      0.92674474	     -5.02844003	     -1.92662625	      0.00000000	      0.00000000	      6.04447048	      9.47881586	     -0.98717843	     54.00383744	    -20.57681173	     24.13633995	     98.93294530	     40.40138760	     26.39852730	     11.28827093	     23.03030606	    -17.89243428	     53.59444352	     74.26123390	     87.71816910	     -1.88864866	      7.34399781
      1.36666667	     -0.71209895	     -5.89072458	    101.59062208	      0.27050472	      0.78443391	      0.63408924	      2.35175442	     -0.54144349	    -18.14733769	      7.73229124	      0.13495394	     32.56163766	     14.91872537	      0.00000000	      9.61348933	      1.03971536	     -1.25305689	     12.95413773	      0.22609236	     35.71451091	     16.11351449	      0.00000000	      0.13488716	     -0.46716108	     -0.27169582	      0.25049894	     -0.62132424	     -0.28867681	      0.22160611	     -1.13585546	     -0.28867681	      0.15416253	     -1.13585546	     -0.23773384	      0.12525621	     -0.95263488	     -0.22075285	      0.07707452	     -0.72363252	     -0.20377186	      0.96348548	     -5.28461960	     -1.51109062	      0.00000000	      0.00000000	      5.66248994	      9.73544676	     -1.71825146	     53.18147340	    -21.05888147	     25.83344408	     95.34375387	     40.10013690	     25.54313631	     12.22747856	     23.00301093	    -17.42412272	     53.69726475	     74.16220850	     87.62298645	     -1.71336895	      7.47834245
      1.38333333	     -0.42919859	     -5.84722609	    102.52418335	      0.26838404	      0.78398224	      0.63322105	      2.21763248	     -0.33329087	    -19.47108274	      7.77747833	      0.13574260	     32.91967700	     15.60288672	      0.00000000	      9.63975322	      0.98935261	      0.26336990	     12.97737557	      0.22649793	     35.79445666	     15.58389235	      0.00000000	      0.13965451	     -0.42538374	     -0.41111894	      0.25935240	     -0.56576037	     -0.43681388	      0.22943840	     -1.03427802	     -0.43681388	      0.15961114	     -1.03427802	     -0.35972907	      0.12968318	     -0.86744252	     -0.33403414	      0.07979859	     -0.65891941	     -0.30833921	      0.99753823	     -4.81202593	     -2.28652022	      0.00000000	      0.00000000	      4.89751371	      9.00125953	     -1.51596710	     52.99293905	    -21.42656832	     28.88305003	     92.37953879	     29.78467400	     22.40625535	     18.18380662	     21.73467384	    -16.86140030	     51.81537097	     74.36620543	     87.66609268	      0.02876604	      7.90564451
